<?xml version="1.0" encoding="utf-8"?><svg xmlns="http://www.w3.org/2000/svg" xmlns:xlink="http://www.w3.org/1999/xlink" width="177px" height="177px" viewBox="0 0 100 100" preserveAspectRatio="xMidYMid" style="margin-right:-2px;display:block;background-repeat-y:initial;background-repeat-x:initial;background-color:rgb(255, 255, 255);animation-play-state:paused" ><g style="animation-play-state:paused" ><circle cx="48.974998474121094" cy="50" r="4" fill="#e15b64" fill-opacity="1" style="animation-play-state:paused" ></circle>

  
<circle cx="72.33097076416016" cy="50" r="4" fill="#e15b64" fill-opacity="1" style="animation-play-state:paused" ></circle>

  
<circle cx="95" cy="50" r="4" fill="#e15b64" fill-opacity="0" style="animation-play-state:paused" ></circle></g>
<g transform="translate(-15 0)" style="transform:matrix(1, 0, 0, 1, -15, 0);animation-play-state:paused" ><path d="M50 50L20 50A30 30 0 0 0 80 50Z" fill="#f8b26a" transform="rotate(90 50 50)" style="transform:matrix(6.12323e-17, 1, -1, 6.12323e-17, 100, 0);animation-play-state:paused" ></path>

  
<path d="M50 50L20 50A30 30 0 0 0 80 50Z" fill="#f8b26a" transform="matrix(1,0,0,1,0,0)" style="transform:matrix(1, 0, 0, 1, 0, 0);animation-play-state:paused" ></path>

  
<path d="M50 50L20 50A30 30 0 0 1 80 50Z" fill="#f8b26a" transform="matrix(1,0,0,1,0,0)" style="transform:matrix(1, 0, 0, 1, 0, 0);animation-play-state:paused" ></path></g><!-- generated by https://loading.io/ --></svg>